HIERARCHY
ROOT hip
{
  OFFSET 0 0 0
  CHANNELS 6 Xposition Yposition Zposition Zrotation Yrotation Xrotation
  JOINT abdomen
  {
    OFFSET 0 20.6881 -0.73152
    CHANNELS 3 Zrotation Xrotation Yrotation
    JOINT chest
    {
      OFFSET 0 11.7043 -0.48768
      CHANNELS 3 Zrotation Xrotation Yrotation
      JOINT neck
      {
        OFFSET 0 22.1894 -2.19456
        CHANNELS 3 Zrotation Xrotation Yrotation
        JOINT head
        {
          OFFSET -0.24384 7.07133 1.2192
          CHANNELS 3 Zrotation Xrotation Yrotation
          JOINT leftEye
          {
            OFFSET 4.14528 8.04674 8.04672
            CHANNELS 3 Zrotation Xrotation Yrotation
            End Site
            {
              OFFSET 1 0 0
            }
          }
          JOINT rightEye
          {
            OFFSET -3.6576 8.04674 8.04672
            CHANNELS 3 Zrotation Xrotation Yrotation
            End Site
            {
              OFFSET 1 0 0
            }
          }
        }
      }
      JOINT rCollar
      {
        OFFSET -2.68224 19.2634 -4.8768
        CHANNELS 3 Zrotation Xrotation Yrotation
        JOINT rShldr
        {
          OFFSET -8.77824 -1.95073 1.46304
          CHANNELS 3 Zrotation Xrotation Yrotation
          JOINT rForeArm
          {
            OFFSET -28.1742 -1.7115 0.48768
            CHANNELS 3 Zrotation Xrotation Yrotation
            JOINT rHand
            {
              OFFSET -22.5879 0.773209 7.07136
              CHANNELS 3 Zrotation Xrotation Yrotation
              JOINT rThumb1
              {
                OFFSET -1.2192 -0.487915 3.41376
                CHANNELS 3 Zrotation Xrotation Yrotation
                JOINT rThumb2
                {
                  OFFSET -3.37035 -0.52449 3.41376
                  CHANNELS 3 Zrotation Xrotation Yrotation
                  End Site
                  {
                    OFFSET -1.78271 -1.18214 1.43049
                  }
                }
              }
              JOINT rIndex1
              {
                OFFSET -7.75947 0.938293 5.60832
                CHANNELS 3 Zrotation Xrotation Yrotation
                JOINT rIndex2
                {
                  OFFSET -2.54057 -0.884171 1.56538
                  CHANNELS 3 Zrotation Xrotation Yrotation
                  End Site
                  {
                    OFFSET -1.62519 -0.234802 1.16502
                  }
                }
              }
              JOINT rMid1
              {
                OFFSET -8.24714 1.18213 3.41376
                CHANNELS 3 Zrotation Xrotation Yrotation
                JOINT rMid2
                {
                  OFFSET -3.10165 -0.590103 1.0647
                  CHANNELS 3 Zrotation Xrotation Yrotation
                  End Site
                  {
                    OFFSET -2.48547 -0.328903 0.83742
                  }
                }
              }
              JOINT rRing1
              {
                OFFSET -8.82822 0.546677 1.51678
                CHANNELS 3 Zrotation Xrotation Yrotation
                JOINT rRing2
                {
                  OFFSET -2.60934 -0.819778 -0.0198488
                  CHANNELS 3 Zrotation Xrotation Yrotation
                  End Site
                  {
                    OFFSET -2.33842 -0.294052 0.168128
                  }
                }
              }
              JOINT rPinky1
              {
                OFFSET -8.27202 -0.0477905 -0.4584
                CHANNELS 3 Zrotation Xrotation Yrotation
                JOINT rPinky2
                {
                  OFFSET -1.82734 -0.647385 -0.700984
                  CHANNELS 3 Zrotation Xrotation Yrotation
                  End Site
                  {
                    OFFSET -1.69225 -0.51767 -0.607171
                  }
                }
              }
            }
          }
        }
      }
      JOINT lCollar
      {
        OFFSET 2.68224 19.2634 -4.8768
        CHANNELS 3 Zrotation Xrotation Yrotation
        JOINT lShldr
        {
          OFFSET 8.77824 -1.95073 1.46304
          CHANNELS 3 Zrotation Xrotation Yrotation
          JOINT lForeArm
          {
            OFFSET 28.1742 -1.7115 0.48768
            CHANNELS 3 Zrotation Xrotation Yrotation
            JOINT lHand
            {
              OFFSET 22.5879 0.773209 7.07136
              CHANNELS 3 Zrotation Xrotation Yrotation
              JOINT lThumb1
              {
                OFFSET 1.2192 -0.487915 3.41376
                CHANNELS 3 Zrotation Xrotation Yrotation
                JOINT lThumb2
                {
                  OFFSET 3.37035 -0.52449 3.41376
                  CHANNELS 3 Zrotation Xrotation Yrotation
                  End Site
                  {
                    OFFSET 1.78271 -1.18214 1.43049
                  }
                }
              }
              JOINT lIndex1
              {
                OFFSET 7.75947 0.938293 5.60832
                CHANNELS 3 Zrotation Xrotation Yrotation
                JOINT lIndex2
                {
                  OFFSET 2.54057 -0.884171 1.56538
                  CHANNELS 3 Zrotation Xrotation Yrotation
                  End Site
                  {
                    OFFSET 1.62519 -0.234802 1.16502
                  }
                }
              }
              JOINT lMid1
              {
                OFFSET 8.24714 1.18213 3.41376
                CHANNELS 3 Zrotation Xrotation Yrotation
                JOINT lMid2
                {
                  OFFSET 3.10165 -0.590103 1.0647
                  CHANNELS 3 Zrotation Xrotation Yrotation
                  End Site
                  {
                    OFFSET 2.48547 -0.328903 0.83742
                  }
                }
              }
              JOINT lRing1
              {
                OFFSET 8.82822 0.546677 1.51678
                CHANNELS 3 Zrotation Xrotation Yrotation
                JOINT lRing2
                {
                  OFFSET 2.60934 -0.819778 -0.0198488
                  CHANNELS 3 Zrotation Xrotation Yrotation
                  End Site
                  {
                    OFFSET 2.33842 -0.294052 0.168128
                  }
                }
              }
              JOINT lPinky1
              {
                OFFSET 8.27202 -0.0477905 -0.4584
                CHANNELS 3 Zrotation Xrotation Yrotation
                JOINT lPinky2
                {
                  OFFSET 1.82734 -0.647385 -0.700984
                  CHANNELS 3 Zrotation Xrotation Yrotation
                  End Site
                  {
                    OFFSET 1.69225 -0.51767 -0.607171
                  }
                }
              }
            }
          }
        }
      }
    }
  }
  JOINT rButtock
  {
    OFFSET -8.77824 4.35084 1.2192
    CHANNELS 3 Zrotation Xrotation Yrotation
    JOINT rThigh
    {
      OFFSET 0 -1.70687 -2.19456
      CHANNELS 3 Zrotation Xrotation Yrotation
      JOINT rShin
      {
        OFFSET 0 -36.8199 0.73152
        CHANNELS 3 Zrotation Xrotation Yrotation
        JOINT rFoot
        {
          OFFSET 0.73152 -45.1104 -5.12064
          CHANNELS 3 Zrotation Xrotation Yrotation
          End Site
          {
            OFFSET -1.1221 -3.69964 12.103
          }
        }
      }
    }
  }
  JOINT lButtock
  {
    OFFSET 8.77824 4.35084 1.2192
    CHANNELS 3 Zrotation Xrotation Yrotation
    JOINT lThigh
    {
      OFFSET 0 -1.70687 -2.19456
      CHANNELS 3 Zrotation Xrotation Yrotation
      JOINT lShin
      {
        OFFSET 0 -36.8199 0.73152
        CHANNELS 3 Zrotation Xrotation Yrotation
        JOINT lFoot
        {
          OFFSET -0.73152 -45.1104 -5.12064
          CHANNELS 3 Zrotation Xrotation Yrotation
          End Site
          {
            OFFSET 1.1221 -3.69964 12.103
          }
        }
      }
    }
  }
}
MOTION
Frames:	6
Frame Time:	0.00833333
5.25583 85.3572 212.551 0.0 0.0 0.0 1.31605 -0.00470381 0.0362376 0.363461 -0.00359455 0.0629623 5.72814e-15 -7.95139e-16 -1.49089e-16 1.73502e-14 3.18055e-15 -4.47265e-16 -0.0 0.0 0.0 -0.0 0.0 0.0 2.93066e-15 -3.18366e-17 9.93923e-17 6.36168e-14 -9.06955e-16 -1.98785e-16 1.03035e-12 -3.33759e-13 -3.81667e-14 1.18301e-11 1.82136e-13 -2.8625e-13 2.78938e-11 -3.26802e-13 -6.96541e-13 4.81639e-11 -5.66139e-13 -1.20623e-12 2.79018e-11 -3.23224e-13 -7.12444e-13 7.73091 5.47488 0.417314 2.78935e-11 -3.26901e-13 -6.96541e-13 2.90554 0.965183 0.102902 2.7908e-11 -3.25907e-13 -6.98132e-13 10.2786 0.731801 0.0259123 2.78966e-11 -3.27995e-13 -6.9018e-13 2.22167 -0.733487 -0.20892 2.93367e-15 -3.10601e-17 -1.98785e-16 5.80819e-14 -5.2181e-16 -2.38542e-15 1.03522e-12 2.85654e-13 -1.90833e-14 1.18181e-11 -4.23734e-13 -2.8943e-13 2.78834e-11 -3.02976e-13 -6.96541e-13 4.81568e-11 -5.27972e-13 -1.20225e-12 2.78764e-11 -3.0096e-13 -6.93361e-13 -7.73091 5.47488 -0.417314 2.78829e-11 -3.03047e-13 -7.06083e-13 -2.90554 0.965183 -0.102902 2.78788e-11 -3.02948e-13 -6.98132e-13 -10.2786 0.731801 -0.0259123 2.78845e-11 -3.01755e-13 -7.02903e-13 -2.22167 -0.733487 0.20892 -2.03217e-16 0.0 -3.88251e-19 1.4623 -6.13862 -0.134745 0.00180601 5.56147 0.0541876 -0.478004 0.57503 0.0659507 2.03217e-16 0.0 3.88251e-19 0.544787 -1.92085 0.00800381 0.00890971 -2.07861 0.0733781 0.452768 3.99724 -0.131529
7.30651 83.3011 200.234 -175.961 -4.2874 -174.759 0.972359 -0.374054 3.33586 -0.0767306 0.725995 0.984748 -0.319122 -4.42559 -0.536714 1.10778 10.5842 -2.79213 -0.0 0.0 0.0 -0.0 0.0 0.0 -3.78503e-14 -3.83507e-14 4.41888e-14 22.5427 12.1279 -2.64872 -16.3131 -13.6894 14.8444 0.0211608 3.23418 0.451942 6.82705e-10 1.76838e-09 -6.89812e-10 1.1735e-09 3.06689e-09 -1.197e-09 6.82711e-10 1.76839e-09 -6.89824e-10 7.73091 5.47488 0.417314 6.82705e-10 1.76839e-09 -6.89809e-10 2.90554 0.965183 0.102902 6.82716e-10 1.76838e-09 -6.8981e-10 10.2786 0.731801 0.0259123 6.82706e-10 1.76838e-09 -6.89802e-10 2.22167 -0.733487 -0.20892 -3.78329e-14 -3.83511e-14 4.39178e-14 -18.2112 14.4855 8.00062 19.6652 -17.3853 -15.1641 -0.0520983 5.0683 -0.702286 -3.86181e-12 2.39878e-10 1.94715e-10 -5.71655e-12 4.17719e-10 3.37237e-10 -3.8653e-12 2.39881e-10 1.94725e-10 -7.73091 5.47488 -0.417314 -3.86212e-12 2.39877e-10 1.94709e-10 -2.90554 0.965183 -0.102902 -3.86516e-12 2.39878e-10 1.94715e-10 -10.2786 0.731801 -0.0259123 -3.85952e-12 2.3988e-10 1.94711e-10 -2.22167 -0.733487 0.20892 -2.03217e-16 0.0 -3.88251e-19 2.70919 -5.8939 -1.92235 -0.0729188 18.7245 0.197424 -0.386444 7.82233 -5.73611 2.03217e-16 0.0 3.88251e-19 0.466428 -11.8133 -0.347835 0.0501943 8.00595 0.00220745 0.293137 8.46544 2.11646
7.2301 82.609 198.59 -175.909 -4.3872 -175.419 0.708465 -0.80664 6.85169 -0.572402 1.49763 1.96912 -0.74902 -9.10792 -1.1208 3.45886 21.6983 -6.08232 -0.0 0.0 0.0 -0.0 0.0 0.0 -8.36905e-14 -7.98248e-14 9.48855e-14 47.6831 24.9129 -5.85585 -25.5947 -25.0719 33.1204 -0.0122592 6.62876 0.9312 1.39442e-09 3.69747e-09 -1.44611e-09 2.39655e-09 6.41207e-09 -2.50923e-09 1.39443e-09 3.69747e-09 -1.44611e-09 7.73091 5.47488 0.417314 1.39442e-09 3.69747e-09 -1.4461e-09 2.90554 0.965183 0.102902 1.39443e-09 3.69747e-09 -1.4461e-09 10.2786 0.731801 0.0259123 1.39442e-09 3.69747e-09 -1.44609e-09 2.22167 -0.733487 -0.20892 -8.36575e-14 -7.98264e-14 9.46432e-14 -42.3517 28.8205 18.3266 29.5226 -31.5171 -35.5791 0.0299145 10.4089 -1.46115 -1.18611e-11 5.26023e-10 3.93785e-10 -1.87083e-11 9.14473e-10 6.81667e-10 -1.18608e-11 5.26026e-10 3.93802e-10 -7.73091 5.47488 -0.417314 -1.18613e-11 5.26021e-10 3.93782e-10 -2.90554 0.965183 -0.102902 -1.18631e-11 5.26022e-10 3.93787e-10 -10.2786 0.731801 -0.0259123 -1.18575e-11 5.26025e-10 3.93784e-10 -2.22167 -0.733487 0.20892 -2.03217e-16 0.0 -3.88251e-19 4.11814 -5.54765 -3.79083 -0.233779 32.445 0.384957 1.36664 15.2856 -12.204 2.03217e-16 0.0 3.88251e-19 0.308371 -22.3117 -0.730735 0.1198 18.5813 -0.0778908 -0.255962 13.2307 4.43457
7.1035 81.8926 196.997 -175.994 -4.6418 -176.037 0.411916 -1.09794 9.93675 -1.02755 2.18283 2.83014 -1.21188 -13.272 -1.64941 6.85581 31.4242 -9.66153 -0.0 0.0 0.0 -0.0 0.0 0.0 -1.19412e-13 -1.14988e-13 1.32368e-13 71.6531 36.0343 -9.62256 -27.6517 -29.4394 51.8719 -0.091457 9.70012 1.3733 1.99233e-09 5.3058e-09 -2.06804e-09 3.42419e-09 9.20179e-09 -3.58859e-09 1.99233e-09 5.30581e-09 -2.06805e-09 7.73091 5.47488 0.417314 1.99233e-09 5.30581e-09 -2.06804e-09 2.90554 0.965183 0.102902 1.99233e-09 5.30581e-09 -2.06804e-09 10.2786 0.731801 0.0259123 1.99232e-09 5.3058e-09 -2.06803e-09 2.22167 -0.733487 -0.20892 -1.19366e-13 -1.14991e-13 1.32151e-13 -69.358 39.5511 30.7719 29.586 -35.981 -58.0569 0.227843 15.1956 -2.17469 -6.73522e-11 7.2024e-10 5.85538e-10 -1.13463e-10 1.25421e-09 1.01412e-09 -6.73486e-11 7.20244e-10 5.85561e-10 -7.73091 5.47488 -0.417314 -6.73522e-11 7.20238e-10 5.85539e-10 -2.90554 0.965183 -0.102902 -6.73531e-11 7.2024e-10 5.85541e-10 -10.2786 0.731801 -0.0259123 -6.73476e-11 7.20242e-10 5.8554e-10 -2.22167 -0.733487 0.20892 -2.03217e-16 0.0 -3.88251e-19 5.24907 -5.38959 -5.49298 -0.496593 45.0492 0.641281 4.39811 21.3821 -18.4937 2.03217e-16 0.0 3.88251e-19 -0.114245 -31.5931 -1.21793 0.214052 28.175 -0.158934 -1.12002 17.3019 6.85411
6.89415 81.44 195.451 -176.395 -4.8936 -176.669 -0.0816946 -1.05471 11.9426 -1.3304 2.65431 3.38101 -1.57037 -16.1454 -2.00074 10.2228 37.9908 -12.7468 -0.0 0.0 0.0 -0.0 0.0 0.0 -1.29837e-13 -1.34376e-13 1.36814e-13 89.6701 43.3131 -13.2181 -27.509 -28.218 64.411 -0.178887 11.9656 1.7068 2.3057e-09 6.11227e-09 -2.35408e-09 3.96332e-09 1.06028e-08 -4.08577e-09 2.3057e-09 6.11227e-09 -2.35408e-09 7.73091 5.47488 0.417314 2.3057e-09 6.11227e-09 -2.35407e-09 2.90554 0.965183 0.102902 2.30571e-09 6.11227e-09 -2.35407e-09 10.2786 0.731801 0.0259123 2.3057e-09 6.11227e-09 -2.35406e-09 2.22167 -0.733487 -0.20892 -1.29784e-13 -1.3438e-13 1.36615e-13 -91.7246 45.1303 41.6654 28.3361 -33.301 -72.5592 0.444321 18.6061 -2.7119 -2.41573e-10 6.84638e-10 7.58998e-10 -4.12626e-10 1.20141e-09 1.31661e-09 -2.41567e-10 6.84645e-10 7.59023e-10 -7.73091 5.47488 -0.417314 -2.41572e-10 6.84638e-10 7.59001e-10 -2.90554 0.965183 -0.102902 -2.41573e-10 6.84638e-10 7.59003e-10 -10.2786 0.731801 -0.0259123 -2.41568e-10 6.84641e-10 7.59001e-10 -2.22167 -0.733487 0.20892 -2.03217e-16 0.0 -3.88251e-19 5.62735 -5.70898 -6.78475 -0.844196 54.8637 0.967851 7.21609 24.9741 -23.1952 2.03217e-16 0.0 3.88251e-19 -0.950066 -37.834 -1.85293 0.310855 35.3149 -0.223055 -2.04972 19.7054 9.32586
6.69665 80.8324 193.941 -176.772 -5.1042 -177.265 -0.89558 -0.539247 12.4037 -1.40475 2.81954 3.48882 -1.68542 -17.2018 -2.06992 11.9651 40.4022 -14.0796 -0.0 0.0 0.0 -0.0 0.0 0.0 -1.00858e-13 -1.31378e-13 9.0614e-14 97.305 45.5352 -15.0611 -27.4622 -26.6254 68.3295 -0.22903 13.0995 1.87621 2.19049e-09 5.73454e-09 -2.13209e-09 3.76664e-09 9.9536e-09 -3.70249e-09 2.19049e-09 5.73455e-09 -2.13209e-09 7.73091 5.47488 0.417314 2.19049e-09 5.73455e-09 -2.13208e-09 2.90554 0.965183 0.102902 2.19049e-09 5.73454e-09 -2.13208e-09 10.2786 0.731801 0.0259123 2.19048e-09 5.73454e-09 -2.13207e-09 2.22167 -0.733487 -0.20892 -1.008e-13 -1.31385e-13 9.04222e-14 -100.989 46.9575 45.6707 28.2396 -31.0248 -77.0405 0.556571 20.0949 -2.95527 -6.17508e-10 2.67535e-10 9.15378e-10 -1.05907e-09 4.9675e-10 1.59239e-09 -6.17502e-10 2.67548e-10 9.15401e-10 -7.73091 5.47488 -0.417314 -6.17507e-10 2.67542e-10 9.15383e-10 -2.90554 0.965183 -0.102902 -6.1751e-10 2.67536e-10 9.15385e-10 -10.2786 0.731801 -0.0259123 -6.17505e-10 2.67538e-10 9.15381e-10 -2.22167 -0.733487 0.20892 -2.03217e-16 0.0 -3.88251e-19 4.90393 -6.6295 -7.56486 -1.17971 60.8287 1.28694 8.12513 25.7274 -24.9327 2.03217e-16 0.0 3.88251e-19 -2.26256 -39.8092 -2.67612 0.378121 39.0618 -0.241138 -2.6988 19.7922 11.8264
